<?xml version="1.0" encoding="utf-8"?>
<!-- Generator: Adobe Illustrator 16.0.0, SVG Export Plug-In . SVG Version: 6.00 Build 0)  -->
<!DOCTYPE svg PUBLIC "-//W3C//DTD SVG 1.1//EN" "http://www.w3.org/Graphics/SVG/1.1/DTD/svg11.dtd">
<svg version="1.1" id="Layer_1" xmlns="http://www.w3.org/2000/svg" xmlns:xlink="http://www.w3.org/1999/xlink" x="0px" y="0px"
	 width="100px" height="100px" viewBox="0 0 100 100" enable-background="new 0 0 100 100" xml:space="preserve">
<ellipse transform="matrix(-0.9998 -0.0175 0.0175 -0.9998 99.1199 100.8662)" fill="none" stroke="#F0F0F0" stroke-width="0.2" stroke-miterlimit="10" cx="50.001" cy="50" rx="15.003" ry="45.004"/>
<ellipse transform="matrix(-0.8747 0.4847 -0.4847 -0.8747 117.9701 69.4943)" fill="none" stroke="#F0F0F0" stroke-width="0.2" stroke-miterlimit="10" cx="50" cy="49.999" rx="15.002" ry="45.005"/>
<ellipse transform="matrix(-0.5151 0.8571 -0.8571 -0.5151 118.6113 32.899)" fill="none" stroke="#F0F0F0" stroke-width="0.2" stroke-miterlimit="10" cx="50" cy="50" rx="15.003" ry="45.005"/>
<ellipse transform="matrix(-0.0174 0.9998 -0.9998 -0.0174 100.8644 0.8806)" fill="none" stroke="#F0F0F0" stroke-width="0.2" stroke-miterlimit="10" cx="50" cy="50" rx="15.002" ry="45.006"/>
<path fill="none" stroke="#F0F0F0" stroke-width="0.2" stroke-miterlimit="10" d="M57.272,63.123
	C35.534,75.17,14.654,79.066,10.637,71.82s10.35-22.891,32.089-34.941c21.74-12.05,42.619-15.946,46.636-8.697
	C93.38,35.429,79.013,51.071,57.272,63.123z"/>
<ellipse transform="matrix(0.8572 0.515 -0.515 0.8572 32.8905 -18.6096)" fill="none" stroke="#F0F0F0" stroke-width="0.2" stroke-miterlimit="10" cx="50" cy="50" rx="15.003" ry="45.005"/>
<path fill="none" stroke="#F0F0F0" stroke-width="0.2" stroke-miterlimit="10" d="M64.981,50.787
	c-1.299,24.819-9.064,44.592-17.337,44.159c-8.275-0.436-13.927-20.906-12.626-45.73C36.32,24.394,44.081,4.624,52.354,5.056
	C60.628,5.491,66.282,25.964,64.981,50.787z"/>
<ellipse transform="matrix(0.891 -0.454 0.454 0.891 -17.2506 28.1506)" fill="none" stroke="#F0F0F0" stroke-width="0.2" stroke-miterlimit="10" cx="50.001" cy="50.001" rx="15.003" ry="45.005"/>
<path fill="none" stroke="#F0F0F0" stroke-width="0.2" stroke-miterlimit="10" d="M58.171,37.418
	c20.846,13.536,34.086,30.144,29.574,37.095c-4.514,6.945-25.07,1.605-45.916-11.934C20.983,49.045,7.744,32.438,12.254,25.491
	C16.768,18.54,37.324,23.881,58.171,37.418z"/>
<ellipse transform="matrix(0.0523 -0.9986 0.9986 0.0523 -2.5495 97.3149)" fill="none" stroke="#F0F0F0" stroke-width="0.2" stroke-miterlimit="10" cx="50" cy="50.001" rx="15.002" ry="45.006"/>
<path fill="none" stroke="#F0F0F0" stroke-width="0.2" stroke-miterlimit="10" d="M43.189,36.635
	c22.148-11.285,43.15-14.448,46.912-7.066c3.762,7.383-11.143,22.515-33.289,33.796C34.664,74.654,13.661,77.814,9.9,70.436
	C6.137,63.049,21.042,47.918,43.189,36.635z"/>
<path fill="none" stroke="#F0F0F0" stroke-width="0.2" stroke-miterlimit="10" d="M37.417,41.83
	C50.955,20.985,67.563,7.744,74.513,12.255c6.945,4.514,1.605,25.07-11.932,45.913C49.044,79.016,32.436,92.256,25.49,87.746
	C18.539,83.232,23.88,62.676,37.417,41.83z"/>
<path fill="none" stroke="#F0F0F0" stroke-width="0.2" stroke-miterlimit="10" d="M35.018,50.787
	C33.717,25.964,39.369,5.49,47.645,5.056c8.274-0.433,16.038,19.337,17.336,44.159c1.301,24.824-4.354,45.294-12.625,45.73
	C44.08,95.379,36.32,75.605,35.018,50.787z"/>
<path fill="none" stroke="#F0F0F0" stroke-width="0.2" stroke-miterlimit="10" d="M37.417,58.172
	C23.88,37.326,18.539,16.768,25.488,12.255c6.949-4.512,23.557,8.729,37.093,29.574C76.118,62.676,81.46,83.232,74.513,87.746
	C67.563,92.256,50.955,79.016,37.417,58.172z"/>
<path fill="none" stroke="#F0F0F0" stroke-width="0.2" stroke-miterlimit="10" d="M43.189,63.365
	C21.042,52.084,6.137,36.952,9.9,29.568c3.761-7.382,24.765-4.219,46.91,7.067c22.148,11.283,37.053,26.414,33.293,33.796
	C86.339,77.814,65.337,74.654,43.189,63.365z"/>
<path fill="none" stroke="#F0F0F0" stroke-width="0.2" stroke-miterlimit="10" d="M50.785,64.982
	C25.963,66.283,5.49,60.629,5.056,52.354C4.624,44.083,24.393,36.32,49.214,35.02c24.824-1.301,45.296,4.35,45.73,12.626
	C95.38,55.918,75.606,63.682,50.785,64.982z"/>
<ellipse transform="matrix(0.5447 0.8386 -0.8386 0.5447 64.6972 -19.1666)" fill="none" stroke="#F0F0F0" stroke-width="0.2" stroke-miterlimit="10" cx="50" cy="50" rx="15" ry="45.007"/>
<path fill="none" stroke="#F0F0F0" stroke-width="0.2" stroke-miterlimit="10" d="M63.368,56.812
	C52.083,78.957,36.95,93.863,29.567,90.102c-7.382-3.762-4.219-24.764,7.066-46.91C47.918,21.043,63.05,6.14,70.431,9.899
	C77.817,13.662,74.653,34.666,63.368,56.812z"/>
<ellipse transform="matrix(0.9998 -0.0175 0.0175 0.9998 -0.8662 0.8815)" fill="none" stroke="#F0F0F0" stroke-width="0.2" stroke-miterlimit="10" cx="50.001" cy="50" rx="15.003" ry="45.005"/>
<path fill="none" stroke="#F0F0F0" stroke-width="0.2" stroke-miterlimit="10" d="M62.858,42.274
	C75.661,63.58,80.28,84.311,73.179,88.578c-7.102,4.266-23.236-9.545-36.038-30.852C24.338,36.421,19.717,15.691,26.819,11.423
	C33.923,7.157,50.057,20.969,62.858,42.274z"/>
<ellipse transform="matrix(0.4848 -0.8746 0.8746 0.4848 -17.9717 69.4943)" fill="none" stroke="#F0F0F0" stroke-width="0.2" stroke-miterlimit="10" cx="50" cy="50.001" rx="15.002" ry="45.005"/>
<ellipse transform="matrix(-0.0174 -0.9998 0.9998 -0.0174 0.8787 100.865)" fill="none" stroke="#F0F0F0" stroke-width="0.2" stroke-miterlimit="10" cx="50" cy="50.001" rx="15.002" ry="45.006"/>
<ellipse transform="matrix(-0.5151 -0.8571 0.8571 -0.5151 32.8978 118.6116)" fill="none" stroke="#F0F0F0" stroke-width="0.2" stroke-miterlimit="10" cx="50" cy="50" rx="15.003" ry="45.005"/>
<path fill="none" stroke="#F0F0F0" stroke-width="0.2" stroke-miterlimit="10" d="M36.879,42.727
	c12.049-21.738,27.692-36.105,34.94-32.089c7.246,4.017,3.354,24.896-8.697,46.633c-12.051,21.742-27.695,36.105-34.94,32.092
	C20.933,85.344,24.829,64.469,36.879,42.727z"/>
</svg>
